<svg width="31" height="31" viewBox="0 0 31 31" fill="none" xmlns="http://www.w3.org/2000/svg">
<g id="Avatar">
<g clip-path="url(#clip0_130_4207)">
<rect x="0.888031" y="0.490234" width="29.7761" height="29.7761" rx="14.888" fill="white"/>
<path id="Vector" opacity="0.2" d="M15.7761 30.2663C23.9985 30.2663 30.6641 23.6007 30.6641 15.3783C30.6641 7.15583 23.9985 0.490234 15.7761 0.490234C7.55363 0.490234 0.888031 7.15583 0.888031 15.3783C0.888031 23.6007 7.55363 30.2663 15.7761 30.2663Z" fill="#ED785E"/>
<g id="Vector_2">
<path d="M8.68629 22.7399C8.70542 20.8722 9.46076 19.0876 10.7882 17.7737C12.1156 16.4598 13.9079 15.7228 15.7756 15.7228C17.6433 15.7228 19.4356 16.4598 20.763 17.7737C22.0904 19.0876 22.8458 20.8722 22.8649 22.7399H8.68629Z" fill="#ED785E"/>
<path d="M19.9119 10.3322C19.9119 8.04799 18.0602 6.19629 15.776 6.19629C13.4918 6.19629 11.6401 8.04799 11.6401 10.3322C11.6401 12.6164 13.4918 14.4681 15.776 14.4681C18.0602 14.4681 19.9119 12.6164 19.9119 10.3322Z" fill="#ED785E"/>
</g>
</g>
</g>
<defs>
<clipPath id="clip0_130_4207">
<rect x="0.888031" y="0.490234" width="29.7761" height="29.7761" rx="14.888" fill="white"/>
</clipPath>
</defs>
</svg>
