<svg width="47" height="47" viewBox="0 0 47 47" fill="none" xmlns="http://www.w3.org/2000/svg">
<rect width="47" height="47" fill="#F5F5F5"/>
<g clip-path="url(#clip0_1_99)">
<rect width="1366" height="838" transform="translate(-882 -235)" fill="white"/>
<g opacity="0.1" filter="url(#filter0_f_1_99)">
<ellipse cx="-741" cy="152.702" rx="420" ry="424.048" fill="url(#paint0_linear_1_99)"/>
</g>
<g filter="url(#filter1_bd_1_99)">
<rect x="-841" y="-203" width="1284" height="774" rx="20" fill="white" fill-opacity="0.8" shape-rendering="crispEdges"/>
</g>
<rect x="-551.384" y="-92.3838" width="967.43" height="173.768" rx="14.1725" fill="white"/>
<rect x="-551.384" y="-92.3838" width="967.43" height="173.768" rx="14.1725" stroke="#E6EDFF" stroke-width="1.23239"/>
<path d="M-110.08 43.2526H-113.755V46.9794H-115.221V43.2526H-118.879V41.9241H-115.221V38.1801H-113.755V41.9241H-110.08V43.2526ZM-107.533 42.528C-107.533 40.5496 -107.211 39.0083 -106.567 37.904C-105.923 36.7883 -104.795 36.2304 -103.185 36.2304C-101.586 36.2304 -100.465 36.7883 -99.8206 37.904C-99.1765 39.0083 -98.8544 40.5496 -98.8544 42.528C-98.8544 44.5409 -99.1765 46.1052 -99.8206 47.2209C-100.465 48.3367 -101.586 48.8945 -103.185 48.8945C-104.795 48.8945 -105.923 48.3367 -106.567 47.2209C-107.211 46.1052 -107.533 44.5409 -107.533 42.528ZM-100.407 42.528C-100.407 41.5273 -100.476 40.6819 -100.614 39.9917C-100.741 39.2901 -101.011 38.7265 -101.425 38.3009C-101.828 37.8753 -102.414 37.6625 -103.185 37.6625C-103.967 37.6625 -104.565 37.8753 -104.979 38.3009C-105.382 38.7265 -105.652 39.2901 -105.79 39.9917C-105.917 40.6819 -105.98 41.5273 -105.98 42.528C-105.98 43.5632 -105.917 44.4316 -105.79 45.1333C-105.652 45.8349 -105.382 46.3985 -104.979 46.8241C-104.565 47.2497 -103.967 47.4625 -103.185 47.4625C-102.414 47.4625 -101.828 47.2497 -101.425 46.8241C-101.011 46.3985 -100.741 45.8349 -100.614 45.1333C-100.476 44.4316 -100.407 43.5632 -100.407 42.528ZM-95.9398 48.9981C-96.2388 48.9981 -96.4919 48.8945 -96.6989 48.6875C-96.906 48.4804 -97.0095 48.2274 -97.0095 47.9283C-97.0095 47.6293 -96.906 47.3762 -96.6989 47.1692C-96.4919 46.9621 -96.2388 46.8586 -95.9398 46.8586C-95.6522 46.8586 -95.4107 46.9621 -95.2151 47.1692C-95.0081 47.3762 -94.9045 47.6293 -94.9045 47.9283C-94.9045 48.2274 -95.0081 48.4804 -95.2151 48.6875C-95.4107 48.8945 -95.6522 48.9981 -95.9398 48.9981ZM-93.4559 46.1167V44.9262L-87.3999 36.541H-85.5193V44.7537H-83.794V46.1167H-85.5193V48.8945H-87.0721V46.1167H-93.4559ZM-87.0031 38.1801L-91.6443 44.7537H-87.0031V38.1801ZM-80.2068 45.5473C-80.0918 46.203 -79.8273 46.7091 -79.4132 47.0657C-78.9876 47.4222 -78.4182 47.6005 -77.7051 47.6005C-76.7504 47.6005 -76.0487 47.2267 -75.6001 46.479C-75.1401 45.7314 -74.9215 44.4719 -74.9445 42.7005C-75.1861 43.2181 -75.5886 43.6265 -76.1523 43.9255C-76.7159 44.2131 -77.3428 44.3569 -78.0329 44.3569C-78.8036 44.3569 -79.4937 44.2016 -80.1033 43.891C-80.7014 43.5689 -81.173 43.1031 -81.5181 42.4935C-81.8632 41.8838 -82.0357 41.1477 -82.0357 40.285C-82.0357 39.0543 -81.6791 38.0651 -80.966 37.3174C-80.2528 36.5583 -79.2406 36.1787 -77.9294 36.1787C-76.319 36.1787 -75.1918 36.702 -74.5477 37.7488C-73.892 38.7955 -73.5642 40.354 -73.5642 42.4245C-73.5642 43.8738 -73.6965 45.07 -73.9611 46.0132C-74.2141 46.9564 -74.6512 47.6753 -75.2723 48.1699C-75.882 48.6645 -76.7216 48.9118 -77.7913 48.9118C-78.9646 48.9118 -79.879 48.5955 -80.5347 47.9628C-81.1903 47.3302 -81.5641 46.525 -81.6561 45.5473H-80.2068ZM-77.7741 43.0283C-77.0034 43.0283 -76.3708 42.7925 -75.8762 42.3209C-75.3816 41.8378 -75.1343 41.188 -75.1343 40.3713C-75.1343 39.5086 -75.3759 38.8127 -75.8589 38.2836C-76.342 37.7545 -77.0207 37.49 -77.8949 37.49C-78.7 37.49 -79.3442 37.743 -79.8273 38.2491C-80.2989 38.7552 -80.5347 39.4223 -80.5347 40.2505C-80.5347 41.0902 -80.2989 41.7631 -79.8273 42.2692C-79.3557 42.7753 -78.6713 43.0283 -77.7741 43.0283ZM-71.7029 39.2326C-71.7029 38.4504 -71.4671 37.8293 -70.9955 37.3692C-70.5239 36.8976 -69.92 36.6618 -69.1839 36.6618C-68.4477 36.6618 -67.8438 36.8976 -67.3722 37.3692C-66.9006 37.8293 -66.6648 38.4504 -66.6648 39.2326C-66.6648 40.0262 -66.9006 40.6588 -67.3722 41.1304C-67.8438 41.5905 -68.4477 41.8206 -69.1839 41.8206C-69.92 41.8206 -70.5239 41.5905 -70.9955 41.1304C-71.4671 40.6588 -71.7029 40.0262 -71.7029 39.2326ZM-61.6268 36.8516L-68.6145 48.8945H-70.1673L-63.1796 36.8516H-61.6268ZM-69.1839 37.628C-69.5749 37.628 -69.8855 37.766 -70.1155 38.0421C-70.3341 38.3066 -70.4434 38.7034 -70.4434 39.2326C-70.4434 39.7617 -70.3341 40.1642 -70.1155 40.4403C-69.8855 40.7164 -69.5749 40.8544 -69.1839 40.8544C-68.7928 40.8544 -68.4822 40.7164 -68.2522 40.4403C-68.0221 40.1527 -67.9071 39.7502 -67.9071 39.2326C-67.9071 38.7034 -68.0221 38.3066 -68.2522 38.0421C-68.4822 37.766 -68.7928 37.628 -69.1839 37.628ZM-65.0948 46.5135C-65.0948 45.7199 -64.859 45.093 -64.3874 44.6329C-63.9158 44.1613 -63.3119 43.9255 -62.5758 43.9255C-61.8396 43.9255 -61.2415 44.1613 -60.7814 44.6329C-60.3098 45.093 -60.074 45.7199 -60.074 46.5135C-60.074 47.2957 -60.3098 47.9226 -60.7814 48.3942C-61.2415 48.8658 -61.8396 49.1016 -62.5758 49.1016C-63.3119 49.1016 -63.9158 48.8715 -64.3874 48.4114C-64.859 47.9398 -65.0948 47.3072 -65.0948 46.5135ZM-62.593 44.909C-62.9841 44.909 -63.2947 45.047 -63.5247 45.3231C-63.7547 45.5876 -63.8698 45.9844 -63.8698 46.5135C-63.8698 47.0312 -63.7547 47.428 -63.5247 47.704C-63.2947 47.9686 -62.9841 48.1009 -62.593 48.1009C-62.2019 48.1009 -61.8914 47.9686 -61.6613 47.704C-61.4313 47.428 -61.3162 47.0312 -61.3162 46.5135C-61.3162 45.9844 -61.4313 45.5876 -61.6613 45.3231C-61.8914 45.047 -62.2019 44.909 -62.593 44.909ZM-51.4923 40.7336V46.3065C-51.4923 46.7666 -51.3945 47.0944 -51.1989 47.29C-51.0034 47.474 -50.6641 47.566 -50.181 47.566H-49.025V48.8945H-50.4398C-51.314 48.8945 -51.9696 48.6932 -52.4067 48.2907C-52.8438 47.8881 -53.0623 47.2267 -53.0623 46.3065V40.7336H-54.2873V39.4396H-53.0623V37.0586H-51.4923V39.4396H-49.025V40.7336H-51.4923ZM-42.4297 39.2671C-41.7166 39.2671 -41.0724 39.4223 -40.4973 39.7329C-39.9222 40.032 -39.4736 40.4863 -39.1515 41.0959C-38.818 41.7056 -38.6512 42.4475 -38.6512 43.3216V48.8945H-40.204V43.5459C-40.204 42.6027 -40.4398 41.8838 -40.9114 41.3892C-41.383 40.8831 -42.0271 40.6301 -42.8438 40.6301C-43.672 40.6301 -44.3333 40.8889 -44.8279 41.4065C-45.311 41.9241 -45.5526 42.6775 -45.5526 43.6667V48.8945H-47.1227V36.1269H-45.5526V40.7854C-45.242 40.3023 -44.8164 39.9284 -44.2758 39.6639C-43.7237 39.3993 -43.1083 39.2671 -42.4297 39.2671ZM-35.2756 37.904C-35.5746 37.904 -35.8277 37.8005 -36.0347 37.5935C-36.2418 37.3864 -36.3453 37.1334 -36.3453 36.8343C-36.3453 36.5353 -36.2418 36.2822 -36.0347 36.0752C-35.8277 35.8681 -35.5746 35.7646 -35.2756 35.7646C-34.988 35.7646 -34.7464 35.8681 -34.5509 36.0752C-34.3439 36.2822 -34.2403 36.5353 -34.2403 36.8343C-34.2403 37.1334 -34.3439 37.3864 -34.5509 37.5935C-34.7464 37.8005 -34.988 37.904 -35.2756 37.904ZM-34.5164 39.4396V48.8945H-36.0865V39.4396H-34.5164ZM-28.4933 49.0498C-29.218 49.0498 -29.8678 48.929 -30.443 48.6875C-31.0181 48.4344 -31.4724 48.0894 -31.806 47.6523C-32.1396 47.2037 -32.3236 46.6918 -32.3581 46.1167H-30.7363C-30.6903 46.5883 -30.4717 46.9736 -30.0806 47.2727C-29.6781 47.5718 -29.1547 47.7213 -28.5106 47.7213C-27.9124 47.7213 -27.4408 47.589 -27.0958 47.3245C-26.7507 47.0599 -26.5782 46.7263 -26.5782 46.3238C-26.5782 45.9097 -26.7622 45.6049 -27.1303 45.4093C-27.4984 45.2023 -28.0677 45.001 -28.8384 44.8054C-29.54 44.6214 -30.1151 44.4374 -30.5637 44.2533C-31.0008 44.0578 -31.3804 43.776 -31.7025 43.4079C-32.013 43.0283 -32.1683 42.5337 -32.1683 41.9241C-32.1683 41.441 -32.0245 40.9982 -31.737 40.5956C-31.4494 40.193 -31.0411 39.8767 -30.512 39.6466C-29.9829 39.4051 -29.379 39.2843 -28.7004 39.2843C-27.6536 39.2843 -26.8082 39.5489 -26.1641 40.078C-25.52 40.6071 -25.1749 41.3317 -25.1289 42.2519H-26.6989C-26.7334 41.7573 -26.9347 41.3605 -27.3028 41.0614C-27.6594 40.7624 -28.1425 40.6128 -28.7521 40.6128C-29.3157 40.6128 -29.7643 40.7336 -30.0979 40.9752C-30.4315 41.2167 -30.5982 41.533 -30.5982 41.9241C-30.5982 42.2347 -30.5005 42.4935 -30.3049 42.7005C-30.0979 42.8961 -29.8448 43.0571 -29.5458 43.1836C-29.2352 43.2986 -28.8096 43.4309 -28.269 43.5804C-27.5904 43.7645 -27.0383 43.9485 -26.6127 44.1326C-26.1871 44.3051 -25.8248 44.5696 -25.5257 44.9262C-25.2151 45.2828 -25.0541 45.7486 -25.0426 46.3238C-25.0426 46.8414 -25.1864 47.3072 -25.4739 47.7213C-25.7615 48.1354 -26.1698 48.4632 -26.6989 48.7047C-27.2165 48.9348 -27.8147 49.0498 -28.4933 49.0498ZM-5.63131 39.4396L-8.58166 48.8945H-10.2035L-12.481 41.3892L-14.7584 48.8945H-16.3803L-19.3479 39.4396H-17.7433L-15.5693 47.3762L-13.2229 39.4396H-11.6183L-9.32356 47.3935L-7.18412 39.4396H-5.63131ZM4.55367 43.8047C4.55367 44.1038 4.53641 44.4201 4.5019 44.7537H-3.05514C-2.99763 45.6854 -2.68131 46.4158 -2.1062 46.9449C-1.51958 47.4625 -0.812181 47.7213 0.015988 47.7213C0.694627 47.7213 1.25824 47.566 1.70683 47.2554C2.16693 46.9334 2.48899 46.5078 2.67303 45.9787H4.36388C4.11082 46.8874 3.60472 47.6293 2.84557 48.2044C2.08641 48.768 1.14322 49.0498 0.015988 49.0498C-0.881195 49.0498 -1.68636 48.8485 -2.39951 48.4459C-3.10115 48.0434 -3.65326 47.474 -4.05584 46.7378C-4.45843 45.9902 -4.65972 45.1275 -4.65972 44.1498C-4.65972 43.1721 -4.46418 42.3152 -4.0731 41.579C-3.68202 40.8429 -3.13566 40.2793 -2.43401 39.8882C-1.72087 39.4856 -0.9042 39.2843 0.015988 39.2843C0.913171 39.2843 1.70683 39.4799 2.39697 39.8709C3.08712 40.262 3.61622 40.8026 3.9843 41.4928C4.36388 42.1714 4.55367 42.9421 4.55367 43.8047ZM2.93183 43.4769C2.93183 42.8788 2.79956 42.3669 2.535 41.9414C2.27045 41.5043 1.90812 41.1765 1.44803 40.9579C0.999439 40.7279 0.499087 40.6128 -0.0530262 40.6128C-0.846688 40.6128 -1.52533 40.8659 -2.08894 41.372C-2.64105 41.8781 -2.95737 42.5797 -3.03789 43.4769H2.93183ZM15.2529 43.8047C15.2529 44.1038 15.2356 44.4201 15.2011 44.7537H7.64406C7.70158 45.6854 8.01789 46.4158 8.59301 46.9449C9.17963 47.4625 9.88702 47.7213 10.7152 47.7213C11.3938 47.7213 11.9574 47.566 12.406 47.2554C12.8661 46.9334 13.1882 46.5078 13.3722 45.9787H15.0631C14.81 46.8874 14.3039 47.6293 13.5448 48.2044C12.7856 48.768 11.8424 49.0498 10.7152 49.0498C9.81801 49.0498 9.01284 48.8485 8.2997 48.4459C7.59805 48.0434 7.04594 47.474 6.64336 46.7378C6.24078 45.9902 6.03949 45.1275 6.03949 44.1498C6.03949 43.1721 6.23503 42.3152 6.62611 41.579C7.01719 40.8429 7.56355 40.2793 8.26519 39.8882C8.97834 39.4856 9.795 39.2843 10.7152 39.2843C11.6124 39.2843 12.406 39.4799 13.0962 39.8709C13.7863 40.262 14.3154 40.8026 14.6835 41.4928C15.0631 42.1714 15.2529 42.9421 15.2529 43.8047ZM13.631 43.4769C13.631 42.8788 13.4988 42.3669 13.2342 41.9414C12.9697 41.5043 12.6073 41.1765 12.1472 40.9579C11.6986 40.7279 11.1983 40.6128 10.6462 40.6128C9.85252 40.6128 9.17388 40.8659 8.61026 41.372C8.05815 41.8781 7.74183 42.5797 7.66132 43.4769H13.631ZM22.6049 48.8945L18.8954 44.7192V48.8945H17.3253V36.1269H18.8954V43.6322L22.5359 39.4396H24.7271L20.2757 44.1498L24.7443 48.8945H22.6049Z" fill="#7C8DB5"/>
<rect x="-882" y="-235" width="1366" height="838" fill="black" fill-opacity="0.76"/>
<g filter="url(#filter2_dd_1_99)">
<path d="M-470 -1.01508C-470 -7.0819 -465.082 -12 -459.015 -12H60.8644C66.9313 -12 71.8494 -7.08188 71.8494 -1.01506V368.051C71.8494 374.118 66.9312 379.036 60.8644 379.036H-459.015C-465.082 379.036 -470 374.118 -470 368.051V-1.01508Z" fill="white"/>
<path d="M-470 -1.01508C-470 -7.0819 -465.082 -12 -459.015 -12H60.8644C66.9313 -12 71.8494 -7.08188 71.8494 -1.01506V368.051C71.8494 374.118 66.9312 379.036 60.8644 379.036H-459.015C-465.082 379.036 -470 374.118 -470 368.051V-1.01508Z" stroke="#DEE2E6" stroke-width="1.37312"/>
</g>
<rect y="0.335938" width="46.0539" height="46.0539" rx="23.0269" fill="#E5E5E5"/>
<path d="M23.027 21.2294L30.4898 13.7666L32.6216 15.8984L25.1588 23.3612L32.6216 30.8239L30.4898 32.9557L23.027 25.4929L15.5643 32.9557L13.4325 30.8239L20.8953 23.3612L13.4325 15.8984L15.5643 13.7666L23.027 21.2294Z" fill="#4F4F4F"/>
</g>
<defs>
<filter id="filter0_f_1_99" x="-1661" y="-771.347" width="1840" height="1848.1" filterUnits="userSpaceOnUse" color-interpolation-filters="sRGB">
<feFlood flood-opacity="0" result="BackgroundImageFix"/>
<feBlend mode="normal" in="SourceGraphic" in2="BackgroundImageFix" result="shape"/>
<feGaussianBlur stdDeviation="250" result="effect1_foregroundBlur_1_99"/>
</filter>
<filter id="filter1_bd_1_99" x="-925.791" y="-287.791" width="1453.58" height="943.582" filterUnits="userSpaceOnUse" color-interpolation-filters="sRGB">
<feFlood flood-opacity="0" result="BackgroundImageFix"/>
<feGaussianBlur in="BackgroundImageFix" stdDeviation="25"/>
<feComposite in2="SourceAlpha" operator="in" result="effect1_backgroundBlur_1_99"/>
<feColorMatrix in="SourceAlpha" type="matrix" values="0 0 0 0 0 0 0 0 0 0 0 0 0 0 0 0 0 0 127 0" result="hardAlpha"/>
<feOffset/>
<feGaussianBlur stdDeviation="42.3956"/>
<feComposite in2="hardAlpha" operator="out"/>
<feColorMatrix type="matrix" values="0 0 0 0 0 0 0 0 0 0 0 0 0 0 0 0 0 0 0.1 0"/>
<feBlend mode="normal" in2="effect1_backgroundBlur_1_99" result="effect2_dropShadow_1_99"/>
<feBlend mode="normal" in="SourceGraphic" in2="effect2_dropShadow_1_99" result="shape"/>
</filter>
<filter id="filter2_dd_1_99" x="-498.149" y="-15.4328" width="598.147" height="450.08" filterUnits="userSpaceOnUse" color-interpolation-filters="sRGB">
<feFlood flood-opacity="0" result="BackgroundImageFix"/>
<feColorMatrix in="SourceAlpha" type="matrix" values="0 0 0 0 0 0 0 0 0 0 0 0 0 0 0 0 0 0 127 0" result="hardAlpha"/>
<feOffset dy="27.4623"/>
<feGaussianBlur stdDeviation="13.7312"/>
<feColorMatrix type="matrix" values="0 0 0 0 0 0 0 0 0 0 0 0 0 0 0 0 0 0 0.08 0"/>
<feBlend mode="normal" in2="BackgroundImageFix" result="effect1_dropShadow_1_99"/>
<feColorMatrix in="SourceAlpha" type="matrix" values="0 0 0 0 0 0 0 0 0 0 0 0 0 0 0 0 0 0 127 0" result="hardAlpha"/>
<feOffset/>
<feGaussianBlur stdDeviation="1.37312"/>
<feColorMatrix type="matrix" values="0 0 0 0 0 0 0 0 0 0 0 0 0 0 0 0 0 0 0.12 0"/>
<feBlend mode="normal" in2="effect1_dropShadow_1_99" result="effect2_dropShadow_1_99"/>
<feBlend mode="normal" in="SourceGraphic" in2="effect2_dropShadow_1_99" result="shape"/>
</filter>
<linearGradient id="paint0_linear_1_99" x1="-438.353" y1="-190.279" x2="-1078.27" y2="527.006" gradientUnits="userSpaceOnUse">
<stop stop-color="#F6448A"/>
<stop offset="1" stop-color="#FA8971"/>
</linearGradient>
<clipPath id="clip0_1_99">
<rect width="1366" height="838" fill="white" transform="translate(-882 -235)"/>
</clipPath>
</defs>
</svg>
