<svg width="17" height="5" viewBox="0 0 17 5" fill="none" xmlns="http://www.w3.org/2000/svg">
<g id="Group 56">
<path id="Vector 9" d="M16.1791 2.07264C16.3439 2.07264 16.4776 2.20626 16.4776 2.37109C16.4776 2.53593 16.3439 2.66955 16.1791 2.66955V2.07264ZM0.78896 2.58213C0.672406 2.46558 0.672406 2.27661 0.78896 2.16005L2.68832 0.260694C2.80487 0.14414 2.99385 0.14414 3.1104 0.260694C3.22695 0.377248 3.22695 0.56622 3.1104 0.682774L1.42208 2.37109L3.1104 4.05941C3.22695 4.17597 3.22695 4.36494 3.1104 4.48149C2.99385 4.59805 2.80487 4.59805 2.68832 4.48149L0.78896 2.58213ZM16.1791 2.66955H1V2.07264H16.1791V2.66955Z" fill="#CBCBCB"/>
</g>
</svg>
