<svg width="26" height="26" viewBox="0 0 26 26" fill="none" xmlns="http://www.w3.org/2000/svg">
<g id="up">
<path id="shape" d="M9.53808 6.48182C9.35226 6.66764 9.23844 6.92585 9.23881 7.20943L9.23881 7.33425C9.23881 7.90213 9.69853 8.36186 10.2657 8.36113L15.8767 8.36113L6.38508 17.8527C5.98422 18.2536 5.98422 18.9043 6.38508 19.3051C6.78594 19.706 7.43662 19.706 7.83748 19.3051L17.3291 9.81353L17.3291 15.4245C17.3291 15.9924 17.7888 16.4521 18.356 16.4514H18.4808C19.0487 16.4514 19.5084 15.9917 19.5077 15.4245V7.20943C19.5077 6.64155 19.0479 6.18182 18.4808 6.18255L10.2657 6.18255C9.98175 6.18255 9.72389 6.296 9.53808 6.48182Z" fill="#34C759"/>
</g>
</svg>
