<svg width="31" height="30" viewBox="0 0 31 30" fill="none" xmlns="http://www.w3.org/2000/svg">
<g id="users">
<path id="shape" fill-rule="evenodd" clip-rule="evenodd" d="M9.20256 10.2888C9.20256 8.14477 10.9406 6.40672 13.0846 6.40672C15.2286 6.40672 16.9666 8.14477 16.9666 10.2888C16.9666 12.4328 15.2286 14.1708 13.0846 14.1708C10.9406 14.1708 9.20256 12.4328 9.20256 10.2888ZM13.0846 4.31165C9.78354 4.31165 7.10749 6.98769 7.10749 10.2888C7.10749 13.5898 9.78354 16.2659 13.0846 16.2659C16.3857 16.2659 19.0617 13.5898 19.0617 10.2888C19.0617 6.98769 16.3857 4.31165 13.0846 4.31165ZM6.73777 22.51C6.73777 22.0133 7.1428 21.3777 8.42414 20.8119C9.64363 20.2734 11.3398 19.9631 13.0846 19.9631C14.8047 19.9631 16.4994 20.3243 17.7281 20.8931C18.3431 21.1778 18.7941 21.4927 19.0777 21.7966C19.3509 22.0892 19.4285 22.3238 19.4314 22.4999C19.4214 22.5265 19.376 22.6104 19.2006 22.7467C18.9314 22.956 18.4821 23.1816 17.8477 23.3855C16.5902 23.7896 14.8547 24.03 13.0846 24.03C10.9914 24.03 9.26832 23.7861 8.10733 23.3911C7.52359 23.1924 7.14576 22.9769 6.93211 22.7883C6.73646 22.6157 6.73759 22.5248 6.73776 22.5109L6.73777 22.51ZM19.4338 22.4907C19.434 22.4908 19.4337 22.4931 19.4321 22.4978C19.4327 22.4931 19.4335 22.4907 19.4338 22.4907ZM13.0846 17.868C11.1322 17.868 9.13121 18.2094 7.57781 18.8954C6.08627 19.554 4.6427 20.7157 4.6427 22.51C4.6427 23.2851 5.03405 23.9076 5.54596 24.3593C6.04479 24.7994 6.70679 25.1275 7.43247 25.3745C8.89032 25.8705 10.8644 26.125 13.0846 26.125C15.0117 26.125 16.9733 25.867 18.4887 25.3801C19.2408 25.1384 19.9469 24.8202 20.4864 24.4009C21.0217 23.9848 21.5265 23.3563 21.5265 22.51C21.5265 21.6602 21.1397 20.9353 20.6093 20.3671C20.0842 19.8045 19.3799 19.3491 18.6083 18.9919C17.0641 18.277 15.0617 17.868 13.0846 17.868ZM20.6687 15.1179C20.7242 14.542 21.236 14.1201 21.8118 14.1756C23.3082 14.3198 24.6965 14.7088 25.7455 15.3154C26.7614 15.9029 27.6885 16.8451 27.6885 18.1432C27.6885 18.816 27.431 19.4295 26.9304 19.917C26.4585 20.3765 25.8142 20.6839 25.0781 20.8926C24.5215 21.0504 23.9423 20.7271 23.7845 20.1705C23.6267 19.6139 23.95 19.0348 24.5066 18.877C25.0582 18.7206 25.3382 18.5431 25.4687 18.416C25.5705 18.3169 25.5934 18.2422 25.5934 18.1432C25.5934 17.9501 25.4489 17.5641 24.6967 17.1291C23.9776 16.7132 22.901 16.3854 21.6109 16.261C21.035 16.2056 20.6132 15.6937 20.6687 15.1179ZM22.9438 4.31165C22.3652 4.31165 21.8962 4.78064 21.8962 5.35918C21.8962 5.93772 22.3652 6.40672 22.9438 6.40672C24.0668 6.40672 24.9772 7.31712 24.9772 8.44017C24.9772 9.56321 24.0668 10.4736 22.9438 10.4736C22.3652 10.4736 21.8962 10.9426 21.8962 11.5212C21.8962 12.0997 22.3652 12.5687 22.9438 12.5687C25.2239 12.5687 27.0723 10.7203 27.0723 8.44017C27.0723 6.16005 25.2239 4.31165 22.9438 4.31165Z" fill="#F44C7F"/>
</g>
</svg>
