<svg width="12" height="12" viewBox="0 0 12 12" fill="none" xmlns="http://www.w3.org/2000/svg">
<g id="arrows">
<path id="shape" fill-rule="evenodd" clip-rule="evenodd" d="M8.42005 2.50407V8.87515C8.42005 9.08958 8.24622 9.26341 8.03179 9.26341C7.81736 9.26341 7.64353 9.08958 7.64353 8.87515V2.50407L6.47922 3.66837C6.3276 3.82 6.08177 3.82 5.93014 3.66837C5.77852 3.51675 5.77852 3.27092 5.93014 3.11929L7.75725 1.29219C7.90887 1.14056 8.15471 1.14056 8.30633 1.29219L10.1334 3.11929C10.2851 3.27092 10.2851 3.51675 10.1334 3.66837C9.98181 3.82 9.73598 3.82 9.58435 3.66837L8.42005 2.50407ZM3.85228 2.48028C3.85228 2.26585 3.67845 2.09202 3.46402 2.09202C3.24959 2.09202 3.07576 2.26585 3.07576 2.48028V8.85136L1.91146 7.68706C1.75983 7.53543 1.514 7.53543 1.36238 7.68706C1.21075 7.83868 1.21075 8.08452 1.36238 8.23614L3.18948 10.0632C3.34111 10.2149 3.58694 10.2149 3.73856 10.0632L5.56567 8.23614C5.7173 8.08452 5.7173 7.83868 5.56567 7.68706C5.41405 7.53543 5.16821 7.53543 5.01659 7.68706L3.85228 8.85136V2.48028Z" fill="#7C8DB5"/>
</g>
</svg>
