<svg width="198" height="199" viewBox="0 0 198 199" fill="none" xmlns="http://www.w3.org/2000/svg">
<path d="M85.5886 7.78539C85.1162 4.54811 87.3574 1.52213 90.6172 1.24468C109.231 -0.33957 127.957 3.38797 144.597 12.055C162.992 21.6362 177.902 36.7673 187.212 55.3011C196.522 73.8349 199.758 94.8299 196.462 115.307C193.166 135.784 183.505 154.703 168.85 169.379C154.194 184.056 135.289 193.744 114.817 197.069C94.3441 200.394 73.3445 197.187 54.7976 187.903C36.2506 178.62 21.0984 163.731 11.4911 145.35C2.80047 128.722 -0.953614 110.001 0.604247 91.3853C0.877077 88.1251 3.89987 85.8797 7.13782 86.3475C10.3758 86.8153 12.6001 89.8197 12.354 93.082C11.1357 109.23 14.4534 125.441 21.9908 139.862C30.4452 156.037 43.7792 169.14 60.1005 177.309C76.4218 185.479 94.9015 188.301 112.917 185.375C130.933 182.449 147.57 173.923 160.466 161.008C173.363 148.093 181.865 131.444 184.766 113.424C187.666 95.4044 184.818 76.9288 176.625 60.6191C168.433 44.3093 155.311 30.994 139.124 22.5625C124.692 15.0455 108.476 11.7508 92.3305 12.992C89.0686 13.2428 86.061 11.0227 85.5886 7.78539Z" fill="#E6EDFF"/>
<path d="M31.6369 130.856C29.2626 131.957 26.4309 130.93 25.474 128.494C20.0101 114.584 18.5931 99.3744 21.4397 84.6376C24.5866 68.3462 32.7843 53.4597 44.8695 42.0904C56.9546 30.7211 72.3134 23.4466 88.7664 21.2991C105.219 19.1516 121.931 22.2402 136.529 30.1266C151.128 38.013 162.872 50.2967 170.095 65.2345C177.318 80.1723 179.653 97.0056 176.769 113.346C173.885 129.685 165.929 144.702 154.028 156.265C143.263 166.724 129.766 173.876 115.137 176.932C112.575 177.467 110.164 175.662 109.783 173.072C109.402 170.483 111.198 168.091 113.756 167.535C126.415 164.783 138.087 158.538 147.423 149.467C157.896 139.292 164.898 126.077 167.436 111.698C169.973 97.319 167.918 82.5057 161.562 69.3605C155.206 56.2152 144.871 45.4055 132.024 38.4655C119.178 31.5254 104.472 28.8075 89.9931 30.6973C75.5145 32.5871 61.9987 38.9887 51.3638 48.9936C40.7288 58.9986 33.5149 72.0988 30.7456 86.4352C28.2767 99.2166 29.4523 112.402 34.0899 124.498C35.0269 126.942 34.0112 129.755 31.6369 130.856Z" fill="#E6EDFF"/>
<path d="M47.3216 81.4908C45.5002 80.8518 44.5319 78.8523 45.2789 77.0725C49.5446 66.9098 56.6177 58.1417 65.7016 51.816C75.7436 44.8231 87.7329 41.1703 99.9682 41.376C112.203 41.5818 124.063 45.6356 133.864 52.9622C143.666 60.2888 150.911 70.5161 154.571 82.1927C158.232 93.8694 158.122 106.402 154.258 118.013C150.393 129.624 142.97 139.723 133.042 146.876C123.114 154.03 111.185 157.876 98.948 157.867C87.8787 157.859 77.0658 154.698 67.7619 148.79C66.1325 147.755 65.786 145.56 66.9166 143.996C68.0472 142.432 70.2264 142.091 71.8642 143.113C79.9711 148.168 89.3524 150.87 98.9529 150.877C109.721 150.885 120.219 147.501 128.956 141.205C137.692 134.91 144.225 126.023 147.625 115.806C151.026 105.588 151.123 94.5591 147.901 84.2837C144.68 74.0082 138.304 65.0082 129.679 58.5608C121.054 52.1134 110.618 48.5461 99.8507 48.365C89.0836 48.184 78.533 51.3984 69.696 57.5522C61.8175 63.0385 55.6578 70.6126 51.8881 79.3917C51.1265 81.1653 49.143 82.1298 47.3216 81.4908Z" fill="#E6EDFF"/>
<path d="M191.793 99.6175C195.065 99.6175 197.736 102.272 197.539 105.538C196.431 123.994 190.157 141.813 179.377 156.932C167.449 173.663 150.597 186.255 131.171 192.953C111.746 199.651 90.7146 200.121 71.0092 194.298C51.3037 188.475 33.9062 176.648 21.2418 160.467C8.57747 144.286 1.27735 124.557 0.359125 104.029C-0.559104 83.502 4.95031 63.1997 16.1194 45.9524C27.2884 28.7052 43.5605 15.3726 62.6673 7.81317C79.9339 0.981817 98.7378 -0.827213 116.92 2.53108C120.137 3.12531 122.072 6.35555 121.286 9.53128C120.5 12.707 117.29 14.623 114.068 14.0552C98.286 11.2735 81.9991 12.9057 67.0259 18.8297C50.2119 25.482 35.8925 37.2147 26.0637 52.3922C16.2349 67.5698 11.3866 85.4359 12.1947 103.5C13.0027 121.564 19.4268 138.926 30.5715 153.165C41.7161 167.405 57.0259 177.812 74.3667 182.936C91.7075 188.061 110.215 187.647 127.31 181.753C144.404 175.859 159.233 164.778 169.731 150.054C179.079 136.943 184.576 121.525 185.668 105.537C185.891 102.273 188.522 99.6175 191.793 99.6175Z" fill="url(#paint0_linear_43_4886)"/>
<path d="M173.232 99.6174C175.85 99.6174 177.986 101.741 177.829 104.354C177.022 117.798 172.787 130.842 165.492 142.226C157.344 154.944 145.72 165.059 131.998 171.371C118.277 177.684 103.033 179.93 88.0737 177.842C73.1146 175.755 59.0676 169.422 47.598 159.594C36.1285 149.767 27.7173 136.857 23.3616 122.394C19.0059 107.932 18.8884 92.5238 23.023 77.9966C27.1576 63.4695 35.3709 50.4325 46.6893 40.4311C56.8214 31.4779 69.0615 25.2935 82.2233 22.4346C84.7809 21.8791 87.2071 23.6648 87.6083 26.2511C88.0095 28.8375 86.233 31.2431 83.68 31.8195C72.3087 34.3871 61.7389 39.7807 52.9652 47.5335C43.0051 56.3347 35.7774 67.8072 32.1389 80.5911C28.5005 93.375 28.6039 106.934 32.4369 119.661C36.2699 132.388 43.6717 143.749 53.7649 152.397C63.8581 161.045 76.2195 166.618 89.3835 168.455C102.548 170.292 115.962 168.316 128.037 162.761C140.112 157.206 150.341 148.305 157.512 137.113C163.828 127.255 167.538 115.983 168.332 104.353C168.51 101.742 170.615 99.6174 173.232 99.6174Z" fill="url(#paint1_linear_43_4886)"/>
<path d="M153.744 99.6175C155.674 99.6175 157.249 101.184 157.134 103.11C156.616 111.726 154.189 120.134 150.011 127.719C145.271 136.327 138.429 143.595 130.124 148.848C121.818 154.101 112.319 157.167 102.51 157.761C92.7011 158.355 82.9013 156.458 74.0227 152.246C65.1442 148.034 57.4755 141.644 51.7304 133.671C45.9854 125.699 42.3508 116.402 41.1649 106.647C39.9789 96.892 41.2803 86.9954 44.9477 77.8785C48.1796 69.8443 53.1564 62.6457 59.5014 56.7949C60.9204 55.4865 63.1302 55.716 64.3512 57.2109C65.5723 58.7059 65.341 60.8992 63.9327 62.2192C58.4956 67.3158 54.2244 73.5472 51.4327 80.4871C48.2053 88.5101 47.0601 97.2191 48.1037 105.804C49.1474 114.388 52.3458 122.569 57.4014 129.585C62.4571 136.601 69.2055 142.224 77.0187 145.93C84.8318 149.637 93.4556 151.306 102.088 150.783C110.719 150.261 119.079 147.563 126.388 142.94C133.696 138.318 139.717 131.922 143.889 124.347C147.498 117.795 149.622 110.545 150.129 103.11C150.261 101.184 151.813 99.6175 153.744 99.6175Z" fill="url(#paint2_linear_43_4886)"/>
<defs>
<linearGradient id="paint0_linear_43_4886" x1="108.862" y1="11.2556" x2="193.274" y2="97.1492" gradientUnits="userSpaceOnUse">
<stop stop-color="#347AE2"/>
<stop offset="1" stop-color="#E6EEFF"/>
</linearGradient>
<linearGradient id="paint1_linear_43_4886" x1="39.7518" y1="53.7087" x2="169.58" y2="73.4544" gradientUnits="userSpaceOnUse">
<stop stop-color="#FF9500"/>
<stop offset="0.980922" stop-color="#E6EEFF"/>
</linearGradient>
<linearGradient id="paint2_linear_43_4886" x1="48.1438" y1="74.4418" x2="155.264" y2="99.6175" gradientUnits="userSpaceOnUse">
<stop offset="0.0240774" stop-color="#34C759"/>
<stop offset="1" stop-color="#E6EEFF"/>
</linearGradient>
</defs>
</svg>
