<svg width="23" height="23" viewBox="0 0 23 23" fill="none" xmlns="http://www.w3.org/2000/svg">
<g id="more">
<path id="shape" d="M6.07213 9.4043C5.58755 9.4043 5.12282 9.5968 4.78017 9.93944C4.43752 10.2821 4.24503 10.7468 4.24503 11.2314C4.24503 11.716 4.43752 12.1807 4.78017 12.5234C5.12282 12.866 5.58755 13.0585 6.07213 13.0585C6.55671 13.0585 7.02144 12.866 7.36409 12.5234C7.70674 12.1807 7.89924 11.716 7.89924 11.2314C7.89924 10.7468 7.70674 10.2821 7.36409 9.93944C7.02144 9.5968 6.55671 9.4043 6.07213 9.4043ZM11.5535 9.4043C11.0689 9.4043 10.6041 9.5968 10.2615 9.93944C9.91884 10.2821 9.72634 10.7468 9.72634 11.2314C9.72634 11.716 9.91884 12.1807 10.2615 12.5234C10.6041 12.866 11.0689 13.0585 11.5535 13.0585C12.038 13.0585 12.5028 12.866 12.8454 12.5234C13.1881 12.1807 13.3806 11.716 13.3806 11.2314C13.3806 10.7468 13.1881 10.2821 12.8454 9.93944C12.5028 9.5968 12.038 9.4043 11.5535 9.4043ZM17.0348 9.4043C16.5502 9.4043 16.0855 9.5968 15.7428 9.93944C15.4002 10.2821 15.2077 10.7468 15.2077 11.2314C15.2077 11.716 15.4002 12.1807 15.7428 12.5234C16.0855 12.866 16.5502 13.0585 17.0348 13.0585C17.5193 13.0585 17.9841 12.866 18.3267 12.5234C18.6694 12.1807 18.8619 11.716 18.8619 11.2314C18.8619 10.7468 18.6694 10.2821 18.3267 9.93944C17.9841 9.5968 17.5193 9.4043 17.0348 9.4043Z" fill="black"/>
</g>
</svg>
